<svg xmlns="http://www.w3.org/2000/svg" width="25" height="25" viewBox="0 0 28.195 29.841">
  <g id="Group_587" data-name="Group 587" transform="translate(0 0)">
    <path id="Path_562" data-name="Path 562" d="M18.17,26.476a4.123,4.123,0,0,1-.476,1.3,4.18,4.18,0,0,1-.923,1.093,4.082,4.082,0,0,1-1.243.726,4.319,4.319,0,0,1-2.856,0,4.022,4.022,0,0,1-1.241-.726,4.173,4.173,0,0,1-.923-1.093,4.068,4.068,0,0,1-.483-1.343.44.44,0,0,1,.355-.51l.078-.007h7.29a.442.442,0,0,1,.442.442.641.641,0,0,1-.019.119ZM4.909.058a.866.866,0,0,1,.639,1.61A6.567,6.567,0,0,0,3.136,3.273,6.528,6.528,0,0,0,1.7,5.845.866.866,0,1,1,.04,5.335,8.229,8.229,0,0,1,1.866,2.09,8.288,8.288,0,0,1,4.909.058ZM22.65,1.668a.866.866,0,0,1,.639-1.61,8.264,8.264,0,0,1,3.043,2.035,8.233,8.233,0,0,1,1.826,3.244.866.866,0,1,1-1.656.51,6.494,6.494,0,0,0-1.44-2.572A6.542,6.542,0,0,0,22.65,1.668ZM17.463,2.9a9.755,9.755,0,0,1,1.428.707c.017.012.036.022.053.034a9.675,9.675,0,0,1,1.219.886A9.266,9.266,0,0,1,22.155,6.93a10.029,10.029,0,0,1,.675,1.423h0a8.918,8.918,0,0,1,.432,1.557,9.38,9.38,0,0,1,.143,1.642v1.78q0,.852.01,1.666v0h0a12.589,12.589,0,0,0,.095,1.476,11.736,11.736,0,0,0,.262,1.413h0a7.429,7.429,0,0,0,.461,1.292,8.365,8.365,0,0,0,.726,1.248h0a7.524,7.524,0,0,0,1.056,1.183,12.37,12.37,0,0,0,1.52,1.18.722.722,0,0,1-.4,1.321v0H1.062a.723.723,0,0,1-.374-1.343A12.709,12.709,0,0,0,2.2,21.6a7.216,7.216,0,0,0,1.049-1.19.183.183,0,0,1,.027-.034,8.548,8.548,0,0,0,.7-1.217,7.6,7.6,0,0,0,.471-1.3c0-.01,0-.019.007-.027A10.581,10.581,0,0,0,4.7,16.466a12.389,12.389,0,0,0,.09-1.491V11.551A9.138,9.138,0,0,1,4.94,9.907a8.691,8.691,0,0,1,.435-1.564,9.81,9.81,0,0,1,.682-1.433A9.188,9.188,0,0,1,8.066,4.5a9.44,9.44,0,0,1,1.282-.92,8.964,8.964,0,0,1,2.506-1.03,2.17,2.17,0,0,1,.641-1.056A2.348,2.348,0,0,1,14.144.942a2.379,2.379,0,0,1,1.634.563c1.459,1.3-.357.585,1.685,1.391Z" transform="translate(-0.001 0.004)" fill="#dec5c5"/>
  </g>
</svg>
